<svg xmlns="http://www.w3.org/2000/svg" viewBox="0 0 1200 820" role="img" aria-labelledby="title desc">
  <title id="title">Modern carton packaging production line</title>
  <desc id="desc">Abstract industrial packaging line with cartons and adhesive application equipment.</desc>
  <defs>
    <linearGradient id="bg" x1="0" x2="1" y1="0" y2="1"><stop offset="0" stop-color="#eaf1f7"/><stop offset="1" stop-color="#cfdce8"/></linearGradient>
    <linearGradient id="machine" x1="0" x2="1"><stop offset="0" stop-color="#17395a"/><stop offset="1" stop-color="#1f5f99"/></linearGradient>
  </defs>
  <rect width="1200" height="820" rx="38" fill="url(#bg)"/>
  <path d="M0 602h1200v218H0z" fill="#0b1f33" opacity=".08"/>
  <rect x="116" y="384" width="968" height="118" rx="22" fill="#fff" opacity=".86"/>
  <rect x="154" y="417" width="458" height="50" rx="12" fill="url(#machine)"/>
  <rect x="664" y="405" width="274" height="74" rx="15" fill="#17395a"/>
  <circle cx="232" cy="522" r="45" fill="#0b1f33"/><circle cx="232" cy="522" r="22" fill="#e5edf4"/>
  <circle cx="506" cy="522" r="45" fill="#0b1f33"/><circle cx="506" cy="522" r="22" fill="#e5edf4"/>
  <circle cx="850" cy="522" r="45" fill="#0b1f33"/><circle cx="850" cy="522" r="22" fill="#e5edf4"/>
  <g fill="#d99958" stroke="#b97938" stroke-width="4">
    <path d="M176 278h144l42 60H218z"/><path d="M218 338h144v104H218z"/><path d="M176 278l42 60v104l-42-60z"/>
    <path d="M462 236h154l45 65H507z"/><path d="M507 301h154v98H507z"/><path d="M462 236l45 65v98l-45-65z"/>
    <path d="M792 278h136l38 56H830z"/><path d="M830 334h136v92H830z"/><path d="M792 278l38 56v92l-38-56z"/>
  </g>
  <rect x="718" y="210" width="70" height="174" rx="18" fill="#1f5f99"/><rect x="735" y="232" width="36" height="126" rx="10" fill="#f4f6f8" opacity=".55"/>
  <path d="M773 372c38 28 82 16 116 44" fill="none" stroke="#2e7d5b" stroke-width="12" stroke-linecap="round"/>
  <g fill="#fff" opacity=".75"><rect x="118" y="112" width="250" height="18" rx="9"/><rect x="118" y="146" width="390" height="16" rx="8"/><rect x="118" y="176" width="310" height="16" rx="8"/></g>
</svg>
